<svg width="64" height="64" viewBox="0 0 64 64" fill="none" xmlns="http://www.w3.org/2000/svg">
  <defs>
    <linearGradient id="grad" x1="0%" y1="0%" x2="100%" y2="100%">
      <stop offset="0%" style="stop-color:#60a5fa;stop-opacity:1" />
      <stop offset="100%" style="stop-color:#2563eb;stop-opacity:1" />
    </linearGradient>
  </defs>

  <!-- Background -->
  <circle cx="32" cy="32" r="30" fill="#1e293b"/>
  <circle cx="32" cy="32" r="28" fill="url(#grad)" opacity="0.1"/>

  <!-- Left stack -->
  <g opacity="0.8">
    <rect x="10" y="21" width="18" height="22" rx="2" fill="#475569"/>
    <rect x="11" y="22" width="16" height="20" rx="1.5" fill="url(#grad)"/>
    <line x1="14" y1="27" x2="24" y2="27" stroke="white" stroke-width="1.5" opacity="0.5"/>
    <line x1="14" y1="31" x2="24" y2="31" stroke="white" stroke-width="1.5" opacity="0.5"/>
    <line x1="14" y1="35" x2="21" y2="35" stroke="white" stroke-width="1.5" opacity="0.3"/>
  </g>

  <!-- Right stack -->
  <g opacity="0.8">
    <rect x="36" y="21" width="18" height="22" rx="2" fill="#475569"/>
    <rect x="37" y="22" width="16" height="20" rx="1.5" fill="url(#grad)"/>
    <line x1="40" y1="27" x2="50" y2="27" stroke="white" stroke-width="1.5" opacity="0.5"/>
    <line x1="40" y1="31" x2="50" y2="31" stroke="white" stroke-width="1.5" opacity="0.5"/>
    <line x1="40" y1="35" x2="47" y2="35" stroke="white" stroke-width="1.5" opacity="0.3"/>
  </g>

  <!-- Link icon -->
  <g transform="translate(32, 32)">
    <circle cx="0" cy="0" r="8" fill="url(#grad)" opacity="0.3"/>
    <path d="M -4 -2 L -2 0 L -4 2" stroke="#60a5fa" stroke-width="2" stroke-linecap="round" stroke-linejoin="round" fill="none"/>
    <path d="M 4 -2 L 2 0 L 4 2" stroke="#60a5fa" stroke-width="2" stroke-linecap="round" stroke-linejoin="round" fill="none"/>
    <line x1="-1" y1="0" x2="1" y2="0" stroke="#60a5fa" stroke-width="2" stroke-linecap="round"/>
  </g>

  <!-- Success badge -->
  <circle cx="32" cy="48" r="6" fill="#10b981"/>
  <path d="M 29 48 L 31 50 L 35 46" stroke="white" stroke-width="1.5" stroke-linecap="round" stroke-linejoin="round" fill="none"/>

  <!-- Border -->
  <circle cx="32" cy="32" r="30" stroke="url(#grad)" stroke-width="1" fill="none" opacity="0.3"/>
</svg>
