<svg width="128" height="128" viewBox="0 0 128 128" fill="none" xmlns="http://www.w3.org/2000/svg">
  <defs>
    <!-- Main gradient -->
    <linearGradient id="blueGrad" x1="0%" y1="0%" x2="100%" y2="100%">
      <stop offset="0%" style="stop-color:#60a5fa;stop-opacity:1" />
      <stop offset="100%" style="stop-color:#2563eb;stop-opacity:1" />
    </linearGradient>

    <!-- Light gradient -->
    <linearGradient id="lightGrad" x1="0%" y1="0%" x2="100%" y2="100%">
      <stop offset="0%" style="stop-color:#93c5fd;stop-opacity:1" />
      <stop offset="100%" style="stop-color:#60a5fa;stop-opacity:1" />
    </linearGradient>

    <!-- Shadow -->
    <filter id="shadow">
      <feGaussianBlur in="SourceAlpha" stdDeviation="3"/>
      <feOffset dx="0" dy="2" result="offsetblur"/>
      <feComponentTransfer>
        <feFuncA type="linear" slope="0.3"/>
      </feComponentTransfer>
      <feMerge>
        <feMergeNode/>
        <feMergeNode in="SourceGraphic"/>
      </feMerge>
    </filter>
  </defs>

  <!-- Background circle with subtle glow -->
  <circle cx="64" cy="64" r="60" fill="#1e293b" opacity="0.8"/>
  <circle cx="64" cy="64" r="56" fill="url(#blueGrad)" opacity="0.1"/>

  <!-- Main icon group -->
  <g filter="url(#shadow)">
    <!-- Left stack of duplicate files -->
    <g opacity="0.7">
      <!-- Back file -->
      <rect x="20" y="42" width="38" height="48" rx="4" fill="#475569"/>
      <rect x="22" y="44" width="34" height="44" rx="3" fill="url(#lightGrad)"/>

      <!-- Front file with offset -->
      <rect x="26" y="34" width="38" height="48" rx="4" fill="#475569"/>
      <rect x="28" y="36" width="34" height="44" rx="3" fill="url(#blueGrad)"/>

      <!-- Document lines on front file -->
      <line x1="34" y1="46" x2="56" y2="46" stroke="white" stroke-width="2" stroke-linecap="round" opacity="0.6"/>
      <line x1="34" y1="52" x2="56" y2="52" stroke="white" stroke-width="2" stroke-linecap="round" opacity="0.6"/>
      <line x1="34" y1="58" x2="50" y2="58" stroke="white" stroke-width="2" stroke-linecap="round" opacity="0.6"/>
      <line x1="34" y1="64" x2="54" y2="64" stroke="white" stroke-width="2" stroke-linecap="round" opacity="0.4"/>
      <line x1="34" y1="70" x2="48" y2="70" stroke="white" stroke-width="2" stroke-linecap="round" opacity="0.4"/>
    </g>

    <!-- Right stack of duplicate files -->
    <g opacity="0.7">
      <!-- Back file -->
      <rect x="70" y="42" width="38" height="48" rx="4" fill="#475569"/>
      <rect x="72" y="44" width="34" height="44" rx="3" fill="url(#lightGrad)"/>

      <!-- Front file with offset -->
      <rect x="64" y="34" width="38" height="48" rx="4" fill="#475569"/>
      <rect x="66" y="36" width="34" height="44" rx="3" fill="url(#blueGrad)"/>

      <!-- Document lines on front file -->
      <line x1="72" y1="46" x2="94" y2="46" stroke="white" stroke-width="2" stroke-linecap="round" opacity="0.6"/>
      <line x1="72" y1="52" x2="94" y2="52" stroke="white" stroke-width="2" stroke-linecap="round" opacity="0.6"/>
      <line x1="72" y1="58" x2="88" y2="58" stroke="white" stroke-width="2" stroke-linecap="round" opacity="0.6"/>
      <line x1="72" y1="64" x2="92" y2="64" stroke="white" stroke-width="2" stroke-linecap="round" opacity="0.4"/>
      <line x1="72" y1="70" x2="86" y2="70" stroke="white" stroke-width="2" stroke-linecap="round" opacity="0.4"/>
    </g>

    <!-- Link/chain icon in center -->
    <g transform="translate(64, 58)">
      <!-- Chain link icon -->
      <path d="M -8 -4 L -4 0 L -8 4" stroke="url(#blueGrad)" stroke-width="3" stroke-linecap="round" stroke-linejoin="round" fill="none"/>
      <path d="M 8 -4 L 4 0 L 8 4" stroke="url(#blueGrad)" stroke-width="3" stroke-linecap="round" stroke-linejoin="round" fill="none"/>
      <line x1="-2" y1="0" x2="2" y2="0" stroke="url(#blueGrad)" stroke-width="3" stroke-linecap="round"/>

      <!-- Glow effect -->
      <circle cx="0" cy="0" r="16" fill="url(#blueGrad)" opacity="0.2"/>
    </g>

    <!-- Checkmark badge at bottom -->
    <circle cx="64" cy="98" r="14" fill="#10b981"/>
    <circle cx="64" cy="98" r="12" fill="#059669"/>
    <path d="M 58 98 L 62 102 L 70 94" stroke="white" stroke-width="3" stroke-linecap="round" stroke-linejoin="round" fill="none"/>
  </g>

  <!-- Subtle outer ring -->
  <circle cx="64" cy="64" r="60" stroke="url(#blueGrad)" stroke-width="2" fill="none" opacity="0.3"/>
</svg>
